<?xml version="1.0"?>
<svg xmlns="http://www.w3.org/2000/svg" height="512px" viewBox="-16 0 512 512" width="512px"><g><path d="m352 304h-9.367188c-3.402343-9.582031-12.464843-15.988281-22.632812-16h-17.367188c-3.402343-9.582031-12.464843-15.988281-22.632812-16h-16v-76c0-15.464844-12.535156-28-28-28s-28 12.535156-28 28v140.167969l-7.375-12.167969c-8.3125-13.933594-26.132812-18.828125-40.398438-11.101562-14.261718 7.726562-19.894531 25.328124-12.761718 39.902343l35.78125 84.253907c5.8125 13.695312 18.121094 23.550781 32.753906 26.226562v48.71875h16v-48h24v-16h-32c-11.347656.011719-21.597656-6.769531-26.023438-17.214844l-36-84.714844c-3.371093-6.835937-.773437-15.117187 5.902344-18.804687 6.671875-3.683594 15.066406-1.472656 19.058594 5.023437l21.636719 35.710938h15.425781v-172c0-6.628906 5.371094-12 12-12s12 5.371094 12 12v124h16v-32h16c4.417969 0 8 3.582031 8 8v40h16v-32h16c4.417969 0 8 3.582031 8 8v40h16v-32h8c4.417969 0 8 3.582031 8 8v93.335938l-24 32v58.664062h16v-53.335938l24-32v-98.664062c0-13.253906-10.746094-24-24-24zm0 0" data-original="#000000" class="active-path" data-old_color="#000000" fill="#6EFF77"/><path d="m236 112c45.019531-.128906 82.085938 35.355469 83.929688 80.335938l16-.671876c-2.25-53.550781-46.316407-95.804687-99.914063-95.804687s-97.664063 42.253906-99.910156 95.804687l16 .671876c1.839843-44.96875 38.886719-80.445313 83.894531-80.335938zm0 0" data-original="#000000" class="active-path" data-old_color="#000000" fill="#6EFF77"/><path d="m236 144c27.347656-.023438 50.007812 21.199219 51.777344 48.488281l16-.976562c-2.332032-35.703125-31.96875-63.46875-67.746094-63.46875s-65.414062 27.765625-67.742188 63.46875l16 .976562c1.765626-27.265625 24.390626-48.476562 51.710938-48.488281zm0 0" data-original="#000000" class="active-path" data-old_color="#000000" fill="#6EFF77"/><path d="m384 0v32h-40v16h40v32h40v32h16v-32h40v-80zm80 64h-64v-48h64zm0 0" data-original="#000000" class="active-path" data-old_color="#000000" fill="#6EFF77"/><path d="m96 0h-96v80h40v32h16v-32h40v-32h40v-16h-40zm-16 64h-64v-48h64zm0 0" data-original="#000000" class="active-path" data-old_color="#000000" fill="#6EFF77"/><path d="m96 208h-40v-32h-16v32h-40v80h96v-32h40v-16h-40zm-16 64h-64v-48h64zm0 0" data-original="#000000" class="active-path" data-old_color="#000000" fill="#6EFF77"/><path d="m40 128h16v32h-16zm0 0" data-original="#000000" class="active-path" data-old_color="#000000" fill="#6EFF77"/><path d="m440 176h-16v32h-40v32h-40v16h40v32h96v-80h-40zm24 48v48h-64v-48zm0 0" data-original="#000000" class="active-path" data-old_color="#000000" fill="#6EFF77"/><path d="m424 128h16v32h-16zm0 0" data-original="#000000" class="active-path" data-old_color="#000000" fill="#6EFF77"/><path d="m152 32h32v16h-32zm0 0" data-original="#000000" class="active-path" data-old_color="#000000" fill="#6EFF77"/><path d="m248 32h32v16h-32zm0 0" data-original="#000000" class="active-path" data-old_color="#000000" fill="#6EFF77"/><path d="m200 32h32v16h-32zm0 0" data-original="#000000" class="active-path" data-old_color="#000000" fill="#6EFF77"/><path d="m296 32h32v16h-32zm0 0" data-original="#000000" class="active-path" data-old_color="#000000" fill="#6EFF77"/><path d="m152 240h32v16h-32zm0 0" data-original="#000000" class="active-path" data-old_color="#000000" fill="#6EFF77"/><path d="m296 240h32v16h-32zm0 0" data-original="#000000" class="active-path" data-old_color="#000000" fill="#6EFF77"/></g> </svg>
